<svg width="50" height="50" viewBox="0 0 50 50" fill="none" xmlns="http://www.w3.org/2000/svg">
<path d="M49.9062 34.7612L49.9023 41.2593C49.8996 46.0443 46.0186 49.921 41.2334 49.9185L34.7354 49.9155L34.7393 43.4175L38.71 43.4194C41.3017 43.4209 43.4038 41.3209 43.4053 38.729L43.4082 34.7573L49.9062 34.7612ZM6.58984 34.7427L6.58789 38.7134C6.5865 41.3052 8.68641 43.4072 11.2783 43.4087L15.249 43.4116L15.2451 49.9097L8.74707 49.9058C3.9621 49.9031 0.0852733 46.0219 0.0878906 41.2368L0.0917969 34.7388L6.58984 34.7427ZM36.3428 17.7388L30.3721 23.7085L36.3418 29.6782L30.6846 35.3354L24.7148 29.3657L18.7451 35.3354L13.0889 29.6782L19.0576 23.7085L13.0879 17.7388L18.7451 12.0815L24.7148 18.0513L30.6855 12.0815L36.3428 17.7388ZM41.2539 0.0991211C46.0388 0.101759 49.9155 3.98314 49.9131 8.76807L49.9102 15.2671L43.4121 15.2632L43.4141 11.2915C43.4153 8.6999 41.3152 6.59783 38.7236 6.59619L34.752 6.59424L34.7559 0.0961914L41.2539 0.0991211ZM15.2607 0.0854492L15.2578 6.5835L11.2861 6.58154C8.69436 6.58031 6.59228 8.68016 6.59082 11.272L6.58887 15.2427L0.0908203 15.2388L0.09375 8.74072C0.0965632 3.95583 3.97779 0.0790626 8.7627 0.081543L15.2607 0.0854492Z" fill="#CE362D"/>
</svg>
