<svg width="412" height="580" viewBox="0 0 412 580" fill="none" xmlns="http://www.w3.org/2000/svg">
<path d="M412 580H-1V0H412V580ZM206.971 77.1367C98.9707 72.7367 86.304 175.304 93.4707 227.138C75.3039 220.971 58.4711 251.637 105.471 314.138C110.471 329.638 122.071 361.638 128.471 365.638V456.638L206.971 499.138L282.471 456.638V365.638C289.137 356.638 303.371 333.738 306.971 314.138C322.971 310.137 355.971 222.738 315.971 227.138C324.637 178.971 314.971 81.5367 206.971 77.1367Z" fill="black" fill-opacity="0.5"/>
<path d="M282.471 455.637L206.971 498.137L128.471 455.637V364.637C122.071 360.638 110.47 328.637 105.47 313.137C58.4707 250.637 75.3038 219.971 93.4706 226.137C86.304 174.304 98.9706 71.7371 206.971 76.1371C314.971 80.5371 324.637 177.971 315.971 226.137C355.971 221.737 322.971 309.137 306.971 313.137C303.371 332.737 289.137 355.637 282.471 364.637V455.637Z" stroke="#F1F1F1" stroke-width="6" stroke-dasharray="20 20"/>
</svg>
