<svg width="325" height="125" viewBox="0 0 325 125" fill="none" xmlns="http://www.w3.org/2000/svg">
<path d="M74.8836 79.7351C76.0597 82.9248 79.6005 84.5578 82.7923 83.3824L87.682 81.5817L90.6306 89.5787L82.6288 92.5254C76.7367 94.6954 70.2 91.6805 68.0287 85.7917L65.08 77.7948L73.0818 74.8478L74.8836 79.7351ZM129.375 63.1994C131.546 69.0884 128.53 75.6215 122.638 77.7915L114.636 80.7382L111.687 72.7411L116.577 70.9402C119.769 69.7647 121.403 66.2261 120.227 63.0365L118.425 58.1492L126.427 55.2025L129.375 63.1994ZM76.871 52.2588L71.9808 54.06C68.7891 55.2354 67.1553 58.774 68.3314 61.9636L70.1331 66.8509L62.1316 69.7976L59.1829 61.8005C57.0116 55.9115 60.0283 49.3786 65.9205 47.2086L73.9221 44.2619L76.871 52.2588ZM105.929 32.4747C111.822 30.3047 118.358 33.3194 120.529 39.2082L123.478 47.2056L115.476 50.1523L113.675 45.265C112.499 42.0753 108.958 40.4423 105.766 41.6177L100.876 43.4184L97.9273 35.4215L105.929 32.4747Z" fill="#3C72BA"/>
<path d="M292.784 51.6098C292.784 48.2104 290.027 45.4545 286.625 45.4545H276.202C272.801 45.4545 270.043 48.2104 270.043 51.6098V57.1761C270.953 56.9424 271.905 56.8181 272.886 56.8181H289.941C290.922 56.8181 291.874 56.9424 292.784 57.1761V51.6098ZM301.312 86.6477H292.784V71.4962C292.784 68.0968 290.027 65.3409 286.625 65.3409H276.202C272.801 65.3409 270.043 68.0968 270.043 71.4962V86.6477H261.516V48.2954C261.516 42.0194 266.606 36.9318 272.886 36.9318H289.941C296.221 36.9318 301.312 42.0194 301.312 48.2954V86.6477Z" fill="#222831"/>
<path d="M52.1132 36.9318V45.4545H38.3741C34.9727 45.4545 32.2152 48.2104 32.2152 51.6098V57.1761C33.1236 56.9424 34.0761 56.8181 35.0578 56.8181H43.5855V65.3409H38.3741C34.9727 65.3409 32.2152 68.0968 32.2152 71.4962V86.6477H23.6875V48.2954C23.6875 42.0194 28.7781 36.9318 35.0578 36.9318H52.1132Z" fill="#222831"/>
<path d="M144.971 52.0833C144.971 55.4827 147.729 58.2386 151.13 58.2386H164.869V66.7613H147.814C146.832 66.7613 145.879 66.6368 144.971 66.4031V71.9696C144.971 75.369 147.729 78.1249 151.13 78.1249H164.869V86.6477H147.814C141.534 86.6477 136.443 81.5601 136.443 75.284V36.9318H144.971V52.0833Z" fill="#222831"/>
<path d="M232.143 52.0833C232.143 55.4827 234.9 58.2386 238.302 58.2386H252.041V66.7613H234.985C234.004 66.7613 233.051 66.6368 232.143 66.4031V71.9696C232.143 75.369 234.9 78.1249 238.302 78.1249H252.041V86.6477H234.985C228.706 86.6477 223.615 81.5601 223.615 75.284V36.9318H232.143V52.0833Z" fill="#222831"/>
<path d="M205.612 51.6098C205.612 48.2104 202.854 45.4545 199.453 45.4545H189.03C185.629 45.4545 182.871 48.2104 182.871 51.6098V71.9696C182.871 75.369 185.629 78.1249 189.03 78.1249H199.453C202.854 78.1249 205.612 75.369 205.612 71.9696V51.6098ZM214.14 75.284C214.14 81.5601 209.049 86.6477 202.769 86.6477H185.714C179.434 86.6477 174.344 81.5601 174.344 75.284V48.2954C174.344 42.0194 179.434 36.9318 185.714 36.9318H202.769C209.049 36.9318 214.14 42.0194 214.14 48.2954V75.284Z" fill="#222831"/>
</svg>
