<svg width="50" height="50" viewBox="0 0 50 50" fill="none" xmlns="http://www.w3.org/2000/svg">
<g clip-path="url(#clip0_23_7769)">
<path d="M49.8182 34.6798L49.8148 41.178C49.8121 45.963 45.9309 49.8399 41.1457 49.8374L34.6475 49.8338L34.6511 43.3356L38.6222 43.3379C41.2141 43.3393 43.3166 41.2392 43.3179 38.6471L43.32 34.676L49.8182 34.6798ZM6.50172 34.6606L6.4996 38.6318C6.49818 41.2236 8.59818 43.326 11.1901 43.3274L15.1612 43.3296L15.1577 49.8278L8.65949 49.8242C3.87437 49.8217 -0.00263599 45.9404 1.34474e-06 41.1552L0.00352684 34.657L6.50172 34.6606ZM24.854 14.0794C30.8047 14.0794 35.6287 18.9034 35.6287 24.854C35.6287 30.8047 30.8047 35.6287 24.854 35.6287C18.9034 35.6287 14.0794 30.8047 14.0794 24.854C14.0794 18.9034 18.9034 14.0794 24.854 14.0794ZM41.1661 0.0179813C45.9511 0.020619 49.8282 3.90186 49.8255 8.687L49.822 15.1852L43.3238 15.1815L43.3258 11.2104C43.3273 8.61847 41.2273 6.51621 38.6354 6.51477L34.6643 6.51247L34.6679 0.0142796L41.1661 0.0179813ZM15.1732 0.0035268L15.1697 6.50171L11.1986 6.4996C8.60664 6.4982 6.50424 8.59819 6.50278 11.1901L6.50067 15.1612L0.00246919 15.1577L0.00599469 8.65949C0.00863735 3.87439 3.88991 -0.00259502 8.67502 1.30326e-06L15.1732 0.0035268Z" fill="#3C72BA"/>
</g>
<defs>
<clipPath id="clip0_23_7769">
<rect width="50" height="50" fill="white"/>
</clipPath>
</defs>
</svg>
