<svg width="21" height="20" viewBox="0 0 21 20" fill="none" xmlns="http://www.w3.org/2000/svg">
<path d="M7.25 1.51184C8.50019 0.543298 10.5489 0.492127 11.8496 1.40344H11.8506L17.6104 5.43372C18.0389 5.73385 18.4589 6.23757 18.7725 6.83801C19.0861 7.4388 19.2597 8.07267 19.2598 8.59875V15.379C19.2597 17.5146 17.5262 19.2489 15.3906 19.2491H4.61035C2.47681 19.2491 0.740463 17.507 0.740234 15.3693V8.46887C0.740234 7.98222 0.896592 7.38085 1.18262 6.79993C1.46842 6.21946 1.85158 5.72399 2.24121 5.42004L7.24902 1.51086L7.25 1.51184ZM10 11.4991C9.17589 11.4993 8.5 12.175 8.5 12.9991V15.9991C8.50017 16.8231 9.176 17.499 10 17.4991C10.8241 17.4991 11.4998 16.8232 11.5 15.9991V12.9991C11.5 12.1749 10.8242 11.4991 10 11.4991Z" fill="#3C72BA" stroke="#3C72BA" stroke-width="1.5"/>
</svg>
