<svg width="56" height="32" viewBox="0 0 56 32" fill="none" xmlns="http://www.w3.org/2000/svg">
<g clip-path="url(#clip0_185_2018)">
<g clip-path="url(#clip1_185_2018)">
<path d="M39.266 17.4941L39.2643 20.5411C39.2631 22.7849 37.5018 24.6028 35.3304 24.6015L32.3815 24.5999L32.383 21.5528L34.1851 21.5539C35.3614 21.5546 36.3154 20.5698 36.3161 19.3545L36.3171 17.4924L39.266 17.4941ZM19.6068 17.4829L19.6058 19.345C19.6051 20.5603 20.5582 21.5461 21.7344 21.5468L23.5365 21.5478L23.5348 24.5949L20.5859 24.5932C18.4144 24.592 16.6551 22.7721 16.6563 20.5283L16.6579 17.4812L19.6068 17.4829ZM35.3395 7.33509C37.5111 7.33633 39.2704 9.15626 39.2692 11.4L39.2676 14.4471L36.3187 14.4453L36.3197 12.5833C36.3204 11.3679 35.3674 10.3821 34.1912 10.3815L32.3891 10.3804L32.3906 7.33336L35.3395 7.33509ZM23.544 7.32831L23.5424 10.3753L21.7403 10.3744C20.5641 10.3737 19.61 11.3584 19.6094 12.5738L19.6084 14.4358L16.6595 14.4342L16.6611 11.3871C16.6623 9.14338 18.4237 7.32544 20.5951 7.32666L23.544 7.32831Z" fill="#767676"/>
</g>
</g>
<defs>
<clipPath id="clip0_185_2018">
<rect width="56" height="32" rx="16" fill="white"/>
</clipPath>
<clipPath id="clip1_185_2018">
<rect width="22.69" height="17.3512" fill="white" transform="translate(16.6543 7.32446)"/>
</clipPath>
</defs>
</svg>
