<svg width="28" height="24" viewBox="0 0 28 24" fill="none" xmlns="http://www.w3.org/2000/svg">
<g clip-path="url(#clip0_185_1670)">
<path d="M25.1461 9.60409L26.1298 12.3952C26.8542 14.4505 25.7753 16.7038 23.7201 17.4282L20.929 18.4119L19.9452 15.6209L21.6509 15.0198C22.7642 14.6274 23.3486 13.4067 22.9562 12.2935L22.355 10.5878L25.1461 9.60409ZM6.53907 16.1623L7.1402 17.868C7.53257 18.9812 8.75321 19.5656 9.86649 19.1732L11.5721 18.5721L12.5558 21.3632L9.76475 22.3469C7.70949 23.0713 5.4561 21.9925 4.73169 19.9371L3.74801 17.1461L6.53907 16.1623ZM18.1456 1.61223C20.2009 0.887816 22.4542 1.96672 23.1787 4.02198L24.1624 6.81305L21.3713 7.79673L20.7701 6.09108C20.3778 4.97783 19.1572 4.39345 18.044 4.78583L16.3383 5.38696L15.3545 2.59591L18.1456 1.61223ZM6.98131 5.54711L7.96506 8.33817L6.25942 8.93938C5.14616 9.33176 4.56173 10.5523 4.9541 11.6656L5.5553 13.3712L2.76425 14.355L1.78049 11.5639C1.05609 9.50867 2.13499 7.25529 4.19025 6.53087L6.98131 5.54711Z" fill="#3C72BA"/>
</g>
<defs>
<clipPath id="clip0_185_1670">
<rect width="22.7706" height="16.8519" fill="white" transform="translate(0.458984 7.84521) rotate(-19.447)"/>
</clipPath>
</defs>
</svg>
