<svg width="24" height="24" viewBox="0 0 24 24" fill="none" xmlns="http://www.w3.org/2000/svg">
<g clip-path="url(#clip0_185_886)">
<path d="M19.9438 15.0975L19.9427 17.177C19.9418 18.7082 18.6998 19.9488 17.1686 19.948L15.0892 19.9468L15.0903 17.8674L16.361 17.8681C17.1905 17.8686 17.8632 17.1965 17.8637 16.3671L17.8644 15.0963L19.9438 15.0975ZM6.0825 15.0914L6.08183 16.3622C6.08137 17.1916 6.75337 17.8643 7.58278 17.8648L8.85354 17.8655L8.85242 19.9449L6.77299 19.9437C5.24175 19.9429 4.00111 18.7009 4.00195 17.1697L4.00308 15.0903L6.0825 15.0914ZM13.0113 8.16477H13.0149V9.43552C13.0149 10.2201 13.6166 10.8641 14.3838 10.9314H15.7838V10.9374H15.7875V13.0168H14.3802C13.613 13.084 13.0113 13.728 13.0113 14.5126V15.7834H10.9318V14.5126C10.9318 13.6832 10.2594 13.0108 9.43003 13.0108H8.15928V10.9314H9.43003C10.2594 10.9314 10.9318 10.259 10.9318 9.4296V8.15884H13.0113V8.16477ZM17.1751 4.00575C18.7063 4.0066 19.9469 5.24859 19.9461 6.77984L19.945 8.85926L17.8656 8.85808L17.8663 7.58732C17.8667 6.75791 17.1947 6.08519 16.3653 6.08473L15.0945 6.08399L15.0956 4.00457L17.1751 4.00575ZM8.85738 4.00113L8.85625 6.08055L7.58549 6.07987C6.75608 6.07942 6.08331 6.75142 6.08284 7.58083L6.08216 8.85159L4.00274 8.85046L4.00387 6.77104C4.00472 5.2398 5.24673 3.99917 6.77796 4L8.85738 4.00113Z" fill="#3C72BA"/>
</g>
<defs>
<clipPath id="clip0_185_886">
<rect width="16" height="16" fill="white" transform="translate(4 4)"/>
</clipPath>
</defs>
</svg>
