<svg width="36" height="36" viewBox="0 0 36 36" fill="none" xmlns="http://www.w3.org/2000/svg">
<g clip-path="url(#clip0_108_7277)">
<path d="M28.7718 26.2519C29.5811 26.2519 35.3824 31.7433 35.6666 32.2685C35.942 32.7936 35.8559 33.4566 35.3996 34.1195C34.8312 34.972 34.2459 35.1356 33.867 35.1356C33.8067 35.1356 33.7551 35.1356 33.7034 35.127C33.3504 35.084 27.5061 29.6357 27.1358 28.5164C26.9463 27.9395 27.0153 27.3626 27.3253 26.932C27.6353 26.5016 28.1604 26.2519 28.7718 26.2519ZM4.68123 24.1751L4.67971 27.0343C4.67869 28.9004 6.19069 30.4141 8.05688 30.4152L10.9161 30.4167L10.9135 35.0954L6.23484 35.0928C2.78955 35.091 -0.00189791 32.2965 9.68214e-07 28.8512L0.00253933 24.1725L4.68123 24.1751ZM19.7144 11.1761C23.9989 11.1761 27.4722 14.6494 27.4722 18.9338C27.4722 23.2183 23.9989 26.6916 19.7144 26.6916C15.43 26.6916 11.9567 23.2183 11.9567 18.9338C11.9567 14.6494 15.43 11.1761 19.7144 11.1761ZM29.6396 -0.767632C33.0848 -0.765733 35.8763 2.02876 35.8743 5.47406L35.8719 10.1528L31.1932 10.1501L31.1946 7.29089C31.1956 5.42472 29.6836 3.91109 27.8175 3.91005L24.9583 3.9084L24.9609 -0.770297L29.6396 -0.767632ZM10.9247 -0.778039L10.9222 3.90066L8.06296 3.89914C6.19678 3.89812 4.68318 5.41012 4.68213 7.2763L4.68048 10.1355L0.00177782 10.133L0.00431618 5.45426C0.00621524 2.00898 2.80074 -0.782443 6.24601 -0.780578L10.9247 -0.778039Z" fill="#3C72BA"/>
</g>
<defs>
<clipPath id="clip0_108_7277">
<rect width="36" height="36" fill="white"/>
</clipPath>
</defs>
</svg>
